<svg id="Layer_2" data-name="Layer 2" xmlns="http://www.w3.org/2000/svg" viewBox="0 0 697.68 575.45"><defs><style>.cls-1{fill:#231f20;}</style></defs><path class="cls-1" d="M192.64,513.18s-18.8,121.1,77.59,224,222.28,90,222.28,90l97.12,0s118.36,11,212-83l-318,1.12s-138.94,9.28-196.88-133.84c0,0-42.65-92.93,26.8-193.91Z" transform="translate(-191.16 -252.28)"/><path class="cls-1" d="M854.91,406.16C776.07,247.32,608.44,252.29,608.44,252.29l-142.17.62c-120,7-188.11,83.64-188.11,83.64l297.78-.69c96-.16,149,42.28,149,42.28,106.75,83.54,78.12,201.26,78.12,201.26l-330.77,1.06c-37.39-9.84-34.54-39-34.54-39,2.83-39.71,37.27-41.54,37.27-41.54l67.44.13.78-82.72-47.68.5c-42.92-2.52-58.08,6.85-58.08,6.85-99.17,40.52-80.42,138.15-80.42,138.15C384.58,670.9,483.27,663.64,483.27,663.64l376.32-.58S928.43,554.3,854.91,406.16Z" transform="translate(-191.16 -252.28)"/><path class="cls-1" d="M606.38,498.89l.88-81.26s79.51-2.91,108.9,81.5Z" transform="translate(-191.16 -252.28)"/><path class="cls-1" d="M278.16,336.55s-59.9,50.65-85.52,176.63l120.84-95.65s55.93-81.19,127.14-81.35" transform="translate(-191.16 -252.28)"/></svg>